<?xml version="1.0" encoding="UTF-8" standalone="no"?>
<!-- Created with Inkscape (http://www.inkscape.org/) -->

<svg
   width="763.28558mm"
   height="765.88232mm"
   viewBox="0 0 763.28558 765.88232"
   version="1.1"
   id="svg5"
   xml:space="preserve"
   inkscape:version="1.2.2 (732a01da63, 2022-12-09)"
   sodipodi:docname="comunidad_censada.svg"
   xmlns:inkscape="http://www.inkscape.org/namespaces/inkscape"
   xmlns:sodipodi="http://sodipodi.sourceforge.net/DTD/sodipodi-0.dtd"
   xmlns="http://www.w3.org/2000/svg"
   xmlns:svg="http://www.w3.org/2000/svg"><sodipodi:namedview
     id="namedview7"
     pagecolor="#505050"
     bordercolor="#eeeeee"
     borderopacity="1"
     inkscape:showpageshadow="0"
     inkscape:pageopacity="0"
     inkscape:pagecheckerboard="0"
     inkscape:deskcolor="#505050"
     inkscape:document-units="mm"
     showgrid="false"
     inkscape:zoom="0.10189088"
     inkscape:cx="1192.4521"
     inkscape:cy="1496.6992"
     inkscape:window-width="1600"
     inkscape:window-height="822"
     inkscape:window-x="-8"
     inkscape:window-y="-8"
     inkscape:window-maximized="1"
     inkscape:current-layer="layer1" /><defs
     id="defs2" /><g
     inkscape:label="Capa 1"
     inkscape:groupmode="layer"
     id="layer1"
     transform="translate(295.08346,256.84332)"><path
       style="fill:#529d49;fill-opacity:1;stroke:none;stroke-width:1.71062"
       id="path370"
       sodipodi:type="arc"
       sodipodi:cx="86.559334"
       sodipodi:cy="126.09785"
       sodipodi:rx="381.64279"
       sodipodi:ry="382.94116"
       sodipodi:start="0"
       sodipodi:end="6.2680824"
       sodipodi:open="true"
       sodipodi:arc-type="arc"
       d="M 468.20213,126.09785 A 381.64279,382.94116 0 0 1 88.000309,509.03628 381.64279,382.94116 0 0 1 -295.07258,128.98958 381.64279,382.94116 0 0 1 82.236489,-256.81875 381.64279,382.94116 0 0 1 468.1586,120.31454" /><path
       style="fill:#ffffff;stroke-width:0.264583"
       d="m -76.276561,402.24345 c -4.10689,-0.12565 -4.45522,-0.17748 -5.87757,-0.87474 -1.605,-0.78679 -3.31214,-2.49931 -4.26989,-4.28334 l -0.56816,-1.05833 -0.0692,-101.77328 -0.0692,-101.77326 12.23999,-10.79363 c 6.73199,-5.9365 13.43319,-11.87118 14.89156,-13.18819 1.45836,-1.317 8.122151,-7.21659 14.808392,-13.11018 6.686268,-5.8936 14.244158,-12.56472 16.795298,-14.82473 2.55113,-2.26001 6.60175,-5.83188 9.00138,-7.9375 2.39962,-2.10562 6.51196,-5.7334 9.13854,-8.06173 2.62657,-2.32833 7.74336,-6.85271 11.37063,-10.05417 3.62728,-3.20146 9.27504,-8.20208 12.55059,-11.1125 30.746415,-27.319094 57.27587,-50.667705 57.5703,-50.667705 0.24009,0 1.07052,0.701214 6.07781,5.132115 2.32834,2.060318 8.40052,7.429288 13.49375,11.931043 5.09323,4.501756 12.356041,10.930253 16.139591,14.285546 11.23357,9.96207 18.05902,15.990831 21.43124,18.929651 1.74625,1.52183 5.32559,4.67278 7.95409,7.00212 2.62848,2.32933 7.80574,6.91406 11.50502,10.18827 3.69929,3.27422 8.27576,7.32985 10.16992,9.01251 1.89418,1.68265 9.21849,8.1604 16.27625,14.395 7.05776,6.23459 14.79121,13.07318 17.18545,15.19687 2.39427,2.12369 6.3863,5.64719 8.87124,7.83 2.48494,2.18281 10.08555,8.89575 16.89023,14.91765 l 12.37218,10.94889 -0.0845,100.96986 c -0.069,82.42192 -0.14854,101.23951 -0.43326,102.43776 -0.63542,2.67403 -2.91203,5.06968 -5.69833,5.9963 -1.24092,0.4127 -5.26817,0.455 -51.68275,0.54308 l -50.33704,0.0956 -0.0281,-20.5879 c -0.0156,-11.32332 -0.10777,-31.7202 -0.20514,-45.3264 l -0.17698,-24.73854 -0.73956,-1.41706 c -0.90863,-1.74098 -2.66954,-3.49123 -4.3403,-4.31403 l -1.25677,-0.61891 H 71.228589 27.836919 l -1.26988,0.62526 c -1.68858,0.83143 -3.62969,2.77058 -4.40622,4.40182 -0.61268,1.28704 -0.63519,1.57758 -0.83013,10.71563 -0.11021,5.16598 -0.20944,25.56433 -0.22051,45.32966 l -0.0201,35.93697 -46.50052,-0.0859 c -25.575235,-0.0473 -48.46498,-0.14603 -50.86608,-0.2195 z M -134.50189,197.24893 c -7.76261,-8.60632 -19.70187,-22.06866 -19.78775,-22.31205 -0.0513,-0.14543 0.12728,-0.5134 0.39687,-0.8177 0.4177,-0.47147 15.41389,-13.83112 19.54019,-17.40777 0.75548,-0.65484 3.85414,-3.39328 6.88593,-6.08541 3.03178,-2.69214 6.05647,-5.3708 6.72152,-5.95259 0.66506,-0.58179 3.76904,-3.32587 6.89774,-6.09796 9.21985,-8.16896 8.9838,-7.96047 19.333819,-17.07716 2.24499,-1.97748 5.2129,-4.59584 6.59535,-5.81857 1.38245,-1.22273 7.1619,-6.33182 12.84323,-11.35354 5.68133,-5.021712 17.46523,-15.440703 26.186403,-23.153307 8.721177,-7.712605 20.979687,-18.550565 27.241107,-24.084354 28.42747,-25.123961 41.7163,-36.879649 43.79586,-38.743107 1.23693,-1.10839 5.69322,-5.046893 9.90287,-8.7522294 4.20966,-3.705339 9.507937,-8.389489 11.773956,-10.40922597 C 54.713593,-10.52101 66.375648,-20.665099 68.923419,-22.647406 c 0.62393,-0.485452 1.57404,-0.981791 2.11136,-1.102976 0.89337,-0.201488 1.10186,-0.126179 2.43745,0.880433 0.80329,0.605422 2.41302,1.944415 3.57719,2.97554 1.16417,1.031124 4.26533,3.773867 6.89147,6.094985 2.62614,2.321117 10.54893,9.3399006 17.606201,15.5972966 17.46651,15.4868664 36.66738,32.4763684 50.24715,44.4601604 8.78552,7.752985 28.44264,25.132432 40.08441,35.439792 6.11187,5.411317 18.61343,16.480608 27.78125,24.598425 9.16781,8.11781 18.63328,16.49878 21.03437,18.62436 2.40109,2.12559 6.38969,5.6583 8.86354,7.85046 2.47386,2.19217 6.40292,5.64642 8.73125,7.67611 2.32834,2.0297 11.91287,10.4672 21.29896,18.75002 9.38609,8.28281 17.17059,15.15189 17.29886,15.26463 0.12827,0.11274 -1.778,2.44556 -4.23614,5.18405 -2.45814,2.73849 -5.7748,6.46735 -7.37037,8.28636 -6.44858,7.35168 -11.68148,12.96459 -12.08685,12.96459 -0.18346,0 -7.42815,-6.31539 -19.41791,-16.92713 -3.21003,-2.84107 -10.88956,-9.6264 -17.06562,-15.07852 -13.61413,-12.01826 -20.19729,-17.83852 -28.0303,-24.78206 -3.27422,-2.90241 -10.12516,-8.96354 -15.22428,-13.46918 -5.09913,-4.50564 -11.76663,-10.39839 -14.81667,-13.09501 -3.05004,-2.69661 -6.44599,-5.67318 -7.54658,-6.61458 -1.88545,-1.61276 -8.86949,-7.76919 -19.6948,-17.360901 C 134.54343,78.636069 118.35633,64.312432 115.40008,61.716203 113.50064,60.0481 105.40439,52.905311 97.408409,45.843338 81.961429,32.200726 72.294749,23.706227 71.597499,23.16227 71.235459,22.879828 70.844369,23.116 68.951669,24.760073 61.816006,30.958353 48.790223,42.391237 40.404627,49.816158 29.122039,59.806173 8.445499,78.073197 1.785999,83.934414 c -2.55241003,2.24645 -8.21262,7.252422 -12.57825,11.12438 -4.36562,3.87196 -10.5627,9.356296 -13.77128,12.187416 -18.63684,16.44437 -26.338495,23.2627 -29.88063,26.45346 -7.0662,6.36519 -33.97373,30.09852 -58.492459,51.59229 -14.54435,12.74997 -17.85364,15.60487 -18.08854,15.60487 -0.10255,0 -1.66708,-1.64156 -3.47673,-3.6479 z M -87.124471,46.534504 V 4.3114136 h 28.31041 28.31036 v 6.1743494 c 0,3.39589 -0.0789,11.01453 -0.17527,16.930312 l -0.17528,10.755966 -18.134437,16.34104 c -9.973933,8.987572 -21.235763,19.125099 -25.026263,22.527833 -3.7905,3.402735 -8.1877,7.39133 -9.77156,8.863543 -1.58387,1.472213 -2.98285,2.716437 -3.10886,2.764943 -0.12849,0.04947 -0.2291,-18.453804 -0.2291,-42.134896 z"
       id="path316" /><path
       style="fill:#ffffff;stroke-width:1.06302"
       d="m 244.9995,60.162917 c -24.88924,-2.764354 -47.16281,-12.695681 -65.24731,-29.092441 -47.84318,-43.378199 -47.87815,-116.601241 -0.0764,-159.939966 38.52495,-34.92805 96.11031,-39.54047 141.05972,-11.29848 8.7728,5.51202 24.1371,20.19872 30.13946,28.81028 26.4692,37.975172 26.88892,85.633486 1.08697,123.424405 -8.42988,12.346843 -22.50598,25.23472 -36.44137,33.365186 -19.56662,11.415947 -47.61556,17.275039 -70.52109,14.731016 z m 27.60257,-84.03099 c 22.47532,-22.402926 46.38364,-46.137497 53.12959,-52.743488 l 12.26537,-12.010893 -13.73181,-13.363116 -13.73179,-13.36314 -27.5803,27.462872 c -15.16918,15.104579 -33.06725,32.867775 -39.7735,39.473767 l -12.19317,12.010893 -13.48319,-12.974929 -13.4832,-12.974921 -12.78004,12.848796 c -7.02903,7.066833 -12.93706,13.242773 -13.12897,13.724294 -0.40117,1.006607 51.93595,53.289671 52.95449,52.899798 0.36976,-0.14153 19.06119,-18.5870043 41.53652,-40.989933 z"
       id="path314" /></g></svg>
